<svg version="1.2" xmlns="http://www.w3.org/2000/svg" viewBox="0 0 935 505" width="185" height="100">
	<title>4119742-ai</title>
	<style>
		tspan { white-space:pre } 
		.s0 { fill: #2595ff } 
		.s1 { fill: #db7011 } 
		.s2 { fill: #ff8f00 } 
		.s3 { fill: #238aed } 
		.s4 { fill: #db7112 } 
		.t5 { font-size: 75px;fill: #ff8f00;font-weight: 700;font-family: "Montserrat-Bold", "Montserrat" } 
	</style>
	<g id="BACKGROUND">
	</g>
	<g id="OBJECTS">
		<g id="&lt;Group&gt;">
			<path id="&lt;Path&gt;" class="s0" d="m222.3 56.9c3.1-2.3 7.7-2.6 21.4 7q0.7 0.5 1.4 0.9l10.3-3.9-1.1-0.7c-0.5-0.3-0.6-0.8-0.3-1.3l0.6-0.9c0.2-0.5 0.8-0.6 1.3-0.3l3 1.8 10.3-3.9-0.6-0.5c-0.5-0.2-0.6-0.8-0.3-1.3l0.6-0.9c0.2-0.5 0.8-0.6 1.3-0.3l2.5 1.6 8.3-3.2 6.3 3.9-29.3 19.3c7.2 5.3 14.1 10.6 18.9 14.3l10.6-4.5 4.2 2.7-8.7 7.4 2.3 2.8-3.6-0.8-2.9 11.1-4.2-2.6-0.6-11.5c-5.4-2.7-13.2-6.7-21.1-10.8l-4.6 34.8-6.3-4-0.7-8.8-2.6-1.7c-0.4-0.2-0.5-0.8-0.3-1.3l0.6-0.9c0.3-0.5 0.9-0.6 1.3-0.3l0.7 0.4-0.9-11.1-3-1.8c-0.4-0.3-0.6-0.9-0.3-1.4l0.6-0.9c0.3-0.5 0.9-0.6 1.3-0.3l1.1 0.7-0.9-11q-0.7-0.4-1.5-0.8c-14.6-8.2-16.3-12.5-15.6-16.3q0.1-0.4 0.5-0.7z"/>
			<path id="&lt;Path&gt;" class="s1" d="m298.2 130c-0.4 11.3-4.4 23.2-12.9 33.4-18.2 21.7-59.3 40.4-125.2 63.9-70 25-144.3 50.7-148.5 103-7.5-18.8-11.6-39.4-11.6-60.9 0-91.6 74.2-165.8 165.8-165.8q4.9 0 9.8 0.3c41.2 2.4 78.3 19.8 106 46.9 6.5-4.4 13.7-11.2 16.6-20.8z"/>
			<path id="&lt;Path&gt;" class="s2" d="m132.3 453.4c-112-57.8-62.2-129.5 50-179.7-118.8 76-89 140.4-50 179.7z"/>
			<path id="&lt;Path&gt;" class="s0" d="m268.6 197.1c-1 0.9-2 1.7-3 2.5-65.5 54.3-153.9 75-199.6 126.6-35.3 39.9-23.5 67.8-17.5 78.5-34.8-30.3-33.6-79.5 20.7-113.1 54.3-33.5 124.4-50.3 199.4-94.5z"/>
			<path id="&lt;Path&gt;" class="s2" d="m298.2 130c-0.4 11.3-4.4 23.2-12.9 33.4-18.2 21.7-59.3 40.4-125.2 63.9-70 25-144.3 50.7-148.5 103-7.5-18.8-11.6-39.4-11.6-60.9 0-91.6 74.2-165.8 165.8-165.8q4.9 0 9.8 0.3c-74.5 0.1-146.1 71-138.7 142.1 20.2-60.6 169-52.3 244.7-95.2 6.5-4.4 13.7-11.2 16.6-20.8z"/>
			<path id="&lt;Path&gt;" class="s0" d="m331.6 269.4c0 80.2-56.9 147.1-132.6 162.5-14.9 3-30.5 1.5-44-5.4-44.4-22.7-37.1-81.7 5.7-117.2 82.2-68.4 192.6-134.9 129.5-208 30.7 19.4 42.6 58 27.1 100.6 9.2 20.7 14.3 43.5 14.3 67.5z"/>
			<path id="&lt;Path&gt;" class="s3" d="m330.8 252.6c-14.6 62.7-165.3 131.2-83.5 136.1-43.1 32-98.5 14.6-78.3-27.9 13.1-27.6 124.7-102 148.3-158.9"/>
			<path id="&lt;Path&gt;" class="s4" d="m132.3 453.4c-96.5-76.1-39.4-126.3 50-179.7-118.8 76-89 140.4-50 179.7z"/>
			<path id="&lt;Path&gt;" class="s3" d="m48.5 404.7c-6-10.7-17.8-38.6 17.5-78.5 45.7-51.6 134.1-72.3 199.6-126.6-76.7 61.1-292 94.7-217.1 205.1z"/>
		</g>
		<text id="VTravel" style="transform: matrix(2,0,0,2,654,334.25)" >
			<tspan x="-145.7" y="0" class="t5">V</tspan><tspan  y="0" class="t5">T</tspan><tspan  y="0" class="t5">r</tspan><tspan  y="0" class="t5">a</tspan><tspan  y="0" class="t5">v</tspan><tspan  y="0" class="t5">e</tspan><tspan  y="0" class="t5">l
</tspan>
		</text>
	</g>
</svg>