<svg width="49" height="36" fill="none" xmlns="http://www.w3.org/2000/svg" class="advantageBannerIcon__2LXU"><path d="M44.47 5.626c8.614 9.318 1.384 10.944-6.346 18.916-7.73 7.972-13.126 12.63-21.646 9.952C7.958 31.815-4.987 19.542 2.743 11.57c7.73-7.972 33.113-15.263 41.727-5.944z" fill="#FCDACF"></path><path d="M28.78 1.255L16.528 5.068a2 2 0 00-1.405 1.91V26.5a2 2 0 002 2h14.947a2 2 0 002-2V8.75c0-.964-.78-1.745-1.745-1.745h-.745a1 1 0 01-1-1V2.58a1.386 1.386 0 00-1.798-1.324z" fill="#fff"></path><path fill-rule="evenodd" clip-rule="evenodd" d="M16.181 29.999a2.812 2.812 0 01-2.805-2.812V6.6a.243.243 0 000-.032 2.929 2.929 0 012.014-2.805L28.52.102c.244-.067.497-.102.75-.102.757.001 1.46.296 1.988.829.529.532.82 1.24.817 1.99v2.804h.935a2.81 2.81 0 012.804 2.811v18.754A2.81 2.81 0 0133.01 30H16.18v-.001zm-.935-2.812c0 .517.419.937.935.937H33.01c.516 0 .935-.42.935-.937V8.433a.936.936 0 00-.935-.937l-1.772.001a.886.886 0 01-.197 0l-15.795.006v19.684zm14.03-25.312a1 1 0 00-.257.033l-13.088 3.65a.967.967 0 00-.156.07l14.43-.005V2.817a.935.935 0 00-.929-.942zm-1.052 20.627c-.295 0-.585-.078-.838-.225l-2.79-1.575-2.802 1.579a1.641 1.641 0 01-.824.22c-.594 0-1.149-.32-1.447-.834a1.69 1.69 0 01-.097-1.482l1.098-2.53-1.976-1.952a1.669 1.669 0 01-.026-2.352 1.695 1.695 0 011.207-.502h2.074l1.296-2.555a1.69 1.69 0 011.499-.91 1.678 1.678 0 011.485.897l1.302 2.571h2.078c.913 0 1.658.733 1.675 1.633.01.458-.173.905-.5 1.226l-1.974 1.948 1.092 2.515a1.677 1.677 0 01-.894 2.201 1.65 1.65 0 01-.638.127zm-3.629-3.812c.16 0 .318.041.458.12l2.747 1.55-1.104-2.545a.944.944 0 01.202-1.042l2.074-2.046h-2.158a.931.931 0 01-.834-.512l-1.385-2.732-1.385 2.728a.93.93 0 01-.832.512H20.22l2.074 2.049c.273.27.354.688.202 1.04l-1.106 2.546 2.748-1.548a.934.934 0 01.457-.12zm-5.61 6.622c0 .518.42.938.936.938h9.349a.936.936 0 000-1.875h-9.35a.936.936 0 00-.934.937z" fill="#2A2D32"></path></svg>
