<svg width="49" height="36" fill="none" xmlns="http://www.w3.org/2000/svg" class="advantageBannerIcon__2LXU"><path d="M44.72 6.372c8.614 9.318 1.384 10.945-6.346 18.916-7.73 7.972-13.126 12.63-21.646 9.952-8.52-2.679-21.465-14.952-13.735-22.924 7.73-7.971 33.113-15.263 41.727-5.944z" fill="#DEECED"></path><path fill-rule="evenodd" clip-rule="evenodd" d="M26.625 18.7c5.176-1.054 9-4.773 9-9.2 0-5.247-5.373-9.5-12-9.5s-12 4.253-12 9.5c0 4.136 3.34 7.655 8 8.96V29h7V18.7z" fill="#fff"></path><path d="M20.685 31.154a2.274 2.274 0 01-2.271-2.272v-3.57h-.974a.974.974 0 010-1.947h1.502l-1.162-3.014c-4.354-1.785-7.155-5.548-7.155-9.642C10.625 4.804 16.303 0 23.281 0c6.979 0 12.657 4.804 12.657 10.71 0 4.093-2.8 7.856-7.156 9.641l-1.161 3.014h1.502a.974.974 0 010 1.948h-.974v3.57a2.274 2.274 0 01-2.272 2.27h-5.192zm-.324-2.272c0 .18.145.325.324.325h5.192c.18 0 .325-.146.325-.325v-3.57H20.36v3.57zm5.172-5.517l.88-2.282a14.691 14.691 0 01-3.132.335c-1.059 0-2.11-.111-3.132-.335l.88 2.282h4.504zM23.281 1.947c-2.639 0-4.867 4.012-4.867 8.762 0 4.75 2.228 8.762 4.867 8.762 2.64 0 4.868-4.012 4.868-8.762 0-4.75-2.229-8.762-4.868-8.762zm-4.603.857c-3.664 1.438-6.106 4.517-6.106 7.905s2.442 6.467 6.106 7.905c-1.389-2.005-2.212-4.877-2.212-7.905 0-3.028.823-5.9 2.212-7.905zm9.206 0c1.39 2.005 2.212 4.877 2.212 7.905 0 3.029-.823 5.9-2.212 7.905 3.665-1.438 6.106-4.517 6.106-7.905s-2.441-6.467-6.106-7.905z" fill="#2A2D32"></path></svg>
