<svg width="49" height="35" fill="none" xmlns="http://www.w3.org/2000/svg" class="advantageBannerIcon__2LXU"><path d="M44.22 4.626c8.614 9.318 1.384 10.944-6.346 18.916-7.73 7.972-13.126 12.63-21.646 9.952C7.708 30.815-5.237 18.542 2.493 10.57c7.73-7.972 33.113-15.263 41.727-5.944z" fill="#F5B8C3"></path><path fill-rule="evenodd" clip-rule="evenodd" d="M32.858 13.556V5.15H13.693v8.405h.132c.76 3.409 4.702 6.005 9.45 6.005 4.748 0 8.69-2.596 9.45-6.004h.133zm-9.583 13.651s2.396.6 5.99.6c0-2.652-2.682-4.803-5.99-4.803-3.308 0-5.989 2.15-5.989 4.803 3.593 0 5.99-.6 5.99-.6z" fill="#fff"></path><path fill-rule="evenodd" clip-rule="evenodd" d="M16.763 28.787a.777.777 0 01-.73-1.035 7.72 7.72 0 014.72-4.732 7.753 7.753 0 011.806-.406v-1.619c-5.671-.402-10.06-5.092-10.06-10.836v-.625H8.576c-.193 1.502-.093 2.849.34 3.882.472 1.126 1.355 1.933 2.884 2.184a.779.779 0 01-.252 1.536c-2.064-.339-3.391-1.504-4.068-3.119-.655-1.563-.68-3.487-.338-5.398a.779.779 0 01.766-.641H12.5v-1.7a2.328 2.328 0 012.322-2.329h17.033a2.328 2.328 0 012.322 2.329v.899h4.466c.377 0 .7.27.766.641.341 1.911.317 3.835-.338 5.398-.677 1.616-2.004 2.78-4.068 3.12a.779.779 0 01-.252-1.537c1.529-.251 2.412-1.058 2.884-2.184.432-1.033.533-2.38.34-3.881h-3.797v1.425c0 5.75-4.394 10.439-10.07 10.836v1.617a7.694 7.694 0 012.564.723 7.701 7.701 0 013.963 4.418.777.777 0 01-.73 1.034H16.763zM14.821 5.5h17.033c.427 0 .774.348.774.777v3.88c0 5.137-4.167 9.315-9.29 9.315-5.124 0-9.29-4.178-9.29-9.314V6.278c0-.429.346-.777.773-.777zm13.88 21.734a6.106 6.106 0 00-2.698-2.5 6.122 6.122 0 00-2.608-.61l-.005.001a.584.584 0 01-.107 0 6.189 6.189 0 00-2.015.358 6.133 6.133 0 00-3.301 2.75H28.7z" fill="#2A2D32"></path></svg>
