<svg width="48" height="35" fill="none" xmlns="http://www.w3.org/2000/svg" class="advantageBannerIcon__2LXU"><path d="M44.095 5.232c8.614 9.319 1.384 10.945-6.346 18.917-7.73 7.971-13.126 12.63-21.646 9.951-8.52-2.678-21.465-14.952-13.735-22.923 7.73-7.972 33.113-15.263 41.727-5.945z" fill="#F6ECBB"></path><path d="M7.8 8.498C7.8 7.89 8.29 7.4 8.897 7.4h31.405c.606 0 1.098.491 1.098 1.098v18.66c0 .606-.492 1.097-1.098 1.097H8.897A1.098 1.098 0 017.8 27.157V8.497z" fill="#fff"></path><path fill-rule="evenodd" clip-rule="evenodd" d="M9.666 9.266v17.123h29.868V9.266H9.666zM8.897 7.4C8.291 7.4 7.8 7.89 7.8 8.498v18.66c0 .606.491 1.097 1.097 1.097h31.405c.606 0 1.098-.491 1.098-1.098V8.497c0-.606-.492-1.097-1.098-1.097H8.897z" fill="#2A2D32"></path><path fill-rule="evenodd" clip-rule="evenodd" d="M28.076 11.187a.964.964 0 000 1.927h4.02c.026.77.245 1.409.74 1.853.503.45 1.22.638 2.098.65v4.387c-.878.012-1.595.2-2.098.65-.495.445-.714 1.083-.74 1.854H28.15a.964.964 0 000 1.927h4.047c1.075 0 1.823-.773 1.823-1.767 0-.447.071-.556.127-.601a.56.56 0 01.253-.095c.15-.028.352-.042.63-.042 1.01 0 1.831-.796 1.831-1.872v-4.494c0-1.076-.82-1.873-1.832-1.873-.278 0-.48-.014-.63-.042a.561.561 0 01-.252-.095c-.056-.045-.127-.153-.127-.6 0-.995-.748-1.768-1.823-1.768h-4.12zM20.835 24.434a.964.964 0 000-1.927h-4.02c-.026-.77-.244-1.409-.74-1.853-.502-.45-1.22-.638-2.098-.65v-4.387c.878-.012 1.596-.2 2.098-.65.496-.445.715-1.083.74-1.854h3.947a.964.964 0 000-1.927h-4.047c-1.075 0-1.824.773-1.824 1.767 0 .447-.07.556-.126.6a.56.56 0 01-.253.096c-.15.028-.352.042-.63.042-1.01 0-1.832.796-1.832 1.872v4.494c0 1.076.821 1.873 1.832 1.873.278 0 .48.013.63.042a.56.56 0 01.253.095c.055.045.126.153.126.6 0 .995.748 1.767 1.824 1.767h4.12z" fill="#2A2D32"></path><path d="M28.656 17.828c0 2.56-1.816 4.634-4.055 4.634-2.24 0-4.056-2.075-4.056-4.634 0-2.56 1.816-4.635 4.056-4.635s4.055 2.075 4.055 4.635z" fill="#fff"></path><path fill-rule="evenodd" clip-rule="evenodd" d="M24.6 20.816c1.131 0 2.41-1.124 2.41-2.988 0-1.864-1.279-2.988-2.41-2.988-1.13 0-2.408 1.124-2.408 2.988 0 1.864 1.278 2.988 2.409 2.988zm0 1.646c2.24 0 4.056-2.075 4.056-4.634 0-2.56-1.816-4.635-4.055-4.635-2.24 0-4.056 2.075-4.056 4.635 0 2.56 1.816 4.634 4.056 4.634z" fill="#2A2D32"></path></svg>
